<svg width="48" height="48" viewBox="0 0 48 48" fill="none" xmlns="http://www.w3.org/2000/svg">
<rect width="48" height="48" fill="#323238"/>
<path d="M33.0245 16.5801C31.3414 15.7927 29.5419 15.2204 27.6605 14.8945C27.4294 15.3123 27.1595 15.8742 26.9734 16.3211C24.9734 16.0204 22.9918 16.0204 21.0286 16.3211C20.8425 15.8742 20.5664 15.3123 20.3333 14.8945C18.4499 15.2204 16.6482 15.7948 14.9652 16.5843C11.5705 21.7141 10.6503 26.7165 11.1104 31.6478C13.3619 33.3292 15.5439 34.3506 17.6891 35.019C18.2188 34.29 18.6912 33.5151 19.0981 32.6985C18.3231 32.404 17.5807 32.0405 16.8793 31.6186C17.0654 31.4808 17.2474 31.3366 17.4233 31.1883C21.7014 33.1893 26.3496 33.1893 30.5766 31.1883C30.7545 31.3366 30.9365 31.4808 31.1206 31.6186C30.4171 32.0426 29.6727 32.406 28.8977 32.7006C29.3046 33.5151 29.775 34.2921 30.3067 35.0211C32.4539 34.3527 34.638 33.3313 36.8895 31.6478C37.4294 25.9311 35.9672 20.9747 33.0245 16.5801ZM19.6809 28.6151C18.3967 28.6151 17.3435 27.4162 17.3435 25.9562C17.3435 24.4962 18.3742 23.2952 19.6809 23.2952C20.9877 23.2952 22.0409 24.4941 22.0184 25.9562C22.0204 27.4162 20.9877 28.6151 19.6809 28.6151ZM28.319 28.6151C27.0347 28.6151 25.9815 27.4162 25.9815 25.9562C25.9815 24.4962 27.0122 23.2952 28.319 23.2952C29.6257 23.2952 30.6789 24.4941 30.6564 25.9562C30.6564 27.4162 29.6257 28.6151 28.319 28.6151Z" fill="white"/>
</svg>
